<?xml version="1.0" encoding="UTF-8"?>
<svg xmlns="http://www.w3.org/2000/svg" xmlns:xlink="http://www.w3.org/1999/xlink" width="854" height="480" viewBox="0 0 854 480">
<defs>
<g>
<g id="glyph-0-0">
<path d="M 0.359375 0 L 0.359375 -0.5625 L 0.53125 -0.5625 C 0.738281 -0.5625 0.921875 -0.582031 1.078125 -0.625 C 1.242188 -0.664062 1.375 -0.753906 1.46875 -0.890625 C 1.570312 -1.035156 1.625 -1.242188 1.625 -1.515625 L 1.625 -6.515625 L 0.40625 -6.515625 L 0.40625 -7.140625 L 1.625 -7.140625 L 1.625 -7.8125 C 1.625 -8.601562 1.832031 -9.207031 2.25 -9.625 C 2.675781 -10.050781 3.253906 -10.265625 3.984375 -10.265625 C 4.441406 -10.265625 4.804688 -10.222656 5.078125 -10.140625 C 5.347656 -10.054688 5.539062 -9.945312 5.65625 -9.8125 C 5.78125 -9.675781 5.84375 -9.515625 5.84375 -9.328125 C 5.84375 -9.171875 5.796875 -9.035156 5.703125 -8.921875 C 5.617188 -8.804688 5.492188 -8.71875 5.328125 -8.65625 C 5.160156 -8.601562 4.972656 -8.578125 4.765625 -8.578125 C 4.765625 -8.753906 4.734375 -8.925781 4.671875 -9.09375 C 4.617188 -9.257812 4.53125 -9.394531 4.40625 -9.5 C 4.28125 -9.601562 4.101562 -9.65625 3.875 -9.65625 C 3.5 -9.65625 3.238281 -9.503906 3.09375 -9.203125 C 2.945312 -8.910156 2.875 -8.488281 2.875 -7.9375 L 2.875 -7.140625 L 4.765625 -7.140625 L 4.765625 -6.515625 L 2.875 -6.515625 L 2.875 -1.515625 C 2.875 -1.242188 2.921875 -1.035156 3.015625 -0.890625 C 3.117188 -0.753906 3.253906 -0.664062 3.421875 -0.625 C 3.585938 -0.582031 3.769531 -0.5625 3.96875 -0.5625 L 4.484375 -0.5625 L 4.484375 0 Z "/>
</g>
<g id="glyph-0-1">
<path d="M 4.1875 1.703125 C 3.363281 1.378906 2.703125 0.960938 2.203125 0.453125 C 1.703125 -0.0546875 1.335938 -0.695312 1.109375 -1.46875 C 0.878906 -2.238281 0.765625 -3.15625 0.765625 -4.21875 C 0.765625 -5.289062 0.878906 -6.207031 1.109375 -6.96875 C 1.335938 -7.726562 1.703125 -8.363281 2.203125 -8.875 C 2.703125 -9.394531 3.363281 -9.8125 4.1875 -10.125 L 4.1875 -9.53125 C 3.726562 -9.25 3.359375 -8.914062 3.078125 -8.53125 C 2.804688 -8.144531 2.601562 -7.71875 2.46875 -7.25 C 2.34375 -6.789062 2.253906 -6.304688 2.203125 -5.796875 C 2.160156 -5.285156 2.140625 -4.757812 2.140625 -4.21875 C 2.140625 -3.6875 2.160156 -3.164062 2.203125 -2.65625 C 2.253906 -2.144531 2.34375 -1.65625 2.46875 -1.1875 C 2.601562 -0.726562 2.804688 -0.300781 3.078125 0.09375 C 3.359375 0.488281 3.726562 0.820312 4.1875 1.09375 Z "/>
</g>
<g id="glyph-0-2">
<path d="M 0.0625 0 L 0.0625 -0.5625 L 0.1875 -0.5625 C 0.394531 -0.5625 0.570312 -0.582031 0.71875 -0.625 C 0.875 -0.675781 1.023438 -0.765625 1.171875 -0.890625 C 1.316406 -1.015625 1.472656 -1.1875 1.640625 -1.40625 L 3.3125 -3.578125 L 1.640625 -5.875 C 1.515625 -6.03125 1.382812 -6.160156 1.25 -6.265625 C 1.125 -6.367188 1 -6.445312 0.875 -6.5 C 0.75 -6.550781 0.625 -6.578125 0.5 -6.578125 L 0.3125 -6.578125 L 0.3125 -7.140625 L 3.703125 -7.140625 L 3.703125 -6.578125 L 3.671875 -6.578125 C 3.367188 -6.578125 3.164062 -6.539062 3.0625 -6.46875 C 2.957031 -6.394531 2.90625 -6.304688 2.90625 -6.203125 C 2.90625 -6.109375 2.929688 -6.015625 2.984375 -5.921875 C 3.035156 -5.835938 3.113281 -5.722656 3.21875 -5.578125 L 4.09375 -4.390625 L 4.78125 -5.390625 C 4.882812 -5.535156 4.96875 -5.675781 5.03125 -5.8125 C 5.09375 -5.957031 5.125 -6.085938 5.125 -6.203125 C 5.125 -6.359375 5.050781 -6.457031 4.90625 -6.5 C 4.769531 -6.550781 4.597656 -6.578125 4.390625 -6.578125 L 4.359375 -6.578125 L 4.359375 -7.140625 L 7.28125 -7.140625 L 7.28125 -6.578125 L 7.15625 -6.578125 C 6.988281 -6.578125 6.832031 -6.554688 6.6875 -6.515625 C 6.550781 -6.484375 6.414062 -6.40625 6.28125 -6.28125 C 6.144531 -6.15625 5.988281 -5.972656 5.8125 -5.734375 L 4.4375 -3.90625 L 6.390625 -1.265625 C 6.523438 -1.097656 6.648438 -0.957031 6.765625 -0.84375 C 6.890625 -0.738281 7.007812 -0.664062 7.125 -0.625 C 7.238281 -0.582031 7.351562 -0.5625 7.46875 -0.5625 L 7.640625 -0.5625 L 7.640625 0 L 4.203125 0 L 4.203125 -0.5625 L 4.265625 -0.5625 C 4.535156 -0.5625 4.734375 -0.597656 4.859375 -0.671875 C 4.992188 -0.742188 5.0625 -0.851562 5.0625 -1 C 5.0625 -1.09375 5.023438 -1.195312 4.953125 -1.3125 C 4.890625 -1.4375 4.757812 -1.640625 4.5625 -1.921875 L 3.671875 -3.125 L 2.734375 -1.8125 C 2.648438 -1.707031 2.566406 -1.578125 2.484375 -1.421875 C 2.410156 -1.265625 2.375 -1.113281 2.375 -0.96875 C 2.375 -0.832031 2.4375 -0.726562 2.5625 -0.65625 C 2.695312 -0.59375 2.910156 -0.5625 3.203125 -0.5625 L 3.234375 -0.5625 L 3.234375 0 Z "/>
</g>
<g id="glyph-0-3">
</g>
<g id="glyph-0-4">
<path d="M 3.3125 -1.90625 L 3.3125 -4.375 L 0.859375 -4.375 L 0.859375 -5.15625 L 3.3125 -5.15625 L 3.3125 -7.625 L 4.125 -7.625 L 4.125 -5.15625 L 6.578125 -5.15625 L 6.578125 -4.375 L 4.125 -4.375 L 4.125 -1.90625 Z "/>
</g>
<g id="glyph-0-5">
<path d="M 0.234375 0 L 0.234375 -0.5625 L 0.34375 -0.5625 C 0.550781 -0.5625 0.734375 -0.582031 0.890625 -0.625 C 1.054688 -0.664062 1.1875 -0.753906 1.28125 -0.890625 C 1.382812 -1.035156 1.4375 -1.242188 1.4375 -1.515625 L 1.4375 -8.65625 C 1.4375 -8.925781 1.382812 -9.125 1.28125 -9.25 C 1.1875 -9.382812 1.054688 -9.46875 0.890625 -9.5 C 0.722656 -9.539062 0.539062 -9.5625 0.34375 -9.5625 L 0.234375 -9.5625 L 0.234375 -10.125 L 2.6875 -10.125 L 2.6875 -7.203125 C 2.6875 -7.035156 2.679688 -6.863281 2.671875 -6.6875 C 2.671875 -6.519531 2.664062 -6.375 2.65625 -6.25 C 2.644531 -6.125 2.640625 -6.0625 2.640625 -6.0625 L 2.703125 -6.0625 C 2.835938 -6.332031 3 -6.554688 3.1875 -6.734375 C 3.382812 -6.921875 3.601562 -7.054688 3.84375 -7.140625 C 4.09375 -7.234375 4.367188 -7.28125 4.671875 -7.28125 C 5.429688 -7.28125 6.015625 -7.070312 6.421875 -6.65625 C 6.828125 -6.238281 7.03125 -5.578125 7.03125 -4.671875 L 7.03125 -1.515625 C 7.03125 -1.242188 7.070312 -1.035156 7.15625 -0.890625 C 7.25 -0.753906 7.367188 -0.664062 7.515625 -0.625 C 7.671875 -0.582031 7.847656 -0.5625 8.046875 -0.5625 L 8.09375 -0.5625 L 8.09375 0 L 5.765625 0 L 5.765625 -4.59375 C 5.765625 -5.175781 5.65625 -5.625 5.4375 -5.9375 C 5.226562 -6.257812 4.851562 -6.421875 4.3125 -6.421875 C 3.945312 -6.421875 3.640625 -6.332031 3.390625 -6.15625 C 3.148438 -5.976562 2.972656 -5.726562 2.859375 -5.40625 C 2.742188 -5.082031 2.6875 -4.703125 2.6875 -4.265625 L 2.6875 -1.453125 C 2.6875 -1.191406 2.738281 -1 2.84375 -0.875 C 2.945312 -0.75 3.078125 -0.664062 3.234375 -0.625 C 3.398438 -0.582031 3.582031 -0.5625 3.78125 -0.5625 L 3.828125 -0.5625 L 3.828125 0 Z "/>
</g>
<g id="glyph-0-6">
<path d="M 0.421875 1.09375 C 0.878906 0.820312 1.242188 0.488281 1.515625 0.09375 C 1.796875 -0.300781 2 -0.726562 2.125 -1.1875 C 2.257812 -1.65625 2.347656 -2.144531 2.390625 -2.65625 C 2.441406 -3.164062 2.46875 -3.6875 2.46875 -4.21875 C 2.46875 -4.757812 2.441406 -5.285156 2.390625 -5.796875 C 2.347656 -6.304688 2.257812 -6.789062 2.125 -7.25 C 2 -7.71875 1.796875 -8.144531 1.515625 -8.53125 C 1.242188 -8.914062 0.878906 -9.25 0.421875 -9.53125 L 0.421875 -10.125 C 1.242188 -9.8125 1.90625 -9.394531 2.40625 -8.875 C 2.90625 -8.363281 3.269531 -7.726562 3.5 -6.96875 C 3.738281 -6.207031 3.859375 -5.289062 3.859375 -4.21875 C 3.859375 -3.15625 3.738281 -2.238281 3.5 -1.46875 C 3.269531 -0.695312 2.90625 -0.0546875 2.40625 0.453125 C 1.90625 0.960938 1.242188 1.378906 0.421875 1.703125 Z "/>
</g>
<g id="glyph-0-7">
<path d="M 0.328125 -3.125 L 0.328125 -4.125 L 3.796875 -4.125 L 3.796875 -3.125 Z "/>
</g>
<g id="glyph-0-8">
<path d="M 0.859375 -5.671875 L 0.859375 -6.46875 L 6.578125 -6.46875 L 6.578125 -5.671875 Z M 0.859375 -3.046875 L 0.859375 -3.84375 L 6.578125 -3.84375 L 6.578125 -3.046875 Z "/>
</g>
<g id="glyph-0-9">
<path d="M 0.8125 0 L 0.8125 -0.96875 L 3.03125 -3.546875 C 3.507812 -4.097656 3.882812 -4.570312 4.15625 -4.96875 C 4.4375 -5.375 4.632812 -5.757812 4.75 -6.125 C 4.875 -6.488281 4.9375 -6.878906 4.9375 -7.296875 C 4.9375 -7.628906 4.882812 -7.921875 4.78125 -8.171875 C 4.6875 -8.429688 4.535156 -8.628906 4.328125 -8.765625 C 4.128906 -8.910156 3.878906 -8.984375 3.578125 -8.984375 C 3.171875 -8.984375 2.859375 -8.890625 2.640625 -8.703125 C 2.429688 -8.515625 2.289062 -8.269531 2.21875 -7.96875 C 2.144531 -7.675781 2.109375 -7.351562 2.109375 -7 C 1.890625 -7 1.691406 -7.019531 1.515625 -7.0625 C 1.347656 -7.113281 1.210938 -7.203125 1.109375 -7.328125 C 1.003906 -7.460938 0.953125 -7.640625 0.953125 -7.859375 C 0.953125 -8.210938 1.050781 -8.519531 1.25 -8.78125 C 1.445312 -9.050781 1.738281 -9.265625 2.125 -9.421875 C 2.519531 -9.578125 3.003906 -9.65625 3.578125 -9.65625 C 4.128906 -9.65625 4.609375 -9.5625 5.015625 -9.375 C 5.421875 -9.195312 5.734375 -8.941406 5.953125 -8.609375 C 6.171875 -8.273438 6.28125 -7.878906 6.28125 -7.421875 C 6.28125 -7.109375 6.226562 -6.800781 6.125 -6.5 C 6.019531 -6.207031 5.867188 -5.90625 5.671875 -5.59375 C 5.484375 -5.289062 5.253906 -4.972656 4.984375 -4.640625 C 4.710938 -4.304688 4.398438 -3.945312 4.046875 -3.5625 L 1.796875 -1.0625 L 4.875 -1.0625 C 5.28125 -1.0625 5.550781 -1.160156 5.6875 -1.359375 C 5.832031 -1.566406 5.9375 -1.800781 6 -2.0625 L 6.046875 -2.3125 L 6.609375 -2.3125 L 6.546875 0 Z "/>
</g>
<g id="glyph-0-10">
<path d="M 0.6875 -3.546875 L 3.484375 -9.515625 L 3.9375 -9.515625 L 6.75 -3.546875 L 5.859375 -3.546875 L 3.703125 -8.296875 L 1.578125 -3.546875 Z "/>
</g>
</g>
</defs>
<g fill="rgb(100%, 100%, 100%)" fill-opacity="1">
<use xlink:href="#glyph-0-0" x="30" y="34.25293"/>
<use xlink:href="#glyph-0-1" x="35" y="34.25293"/>
<use xlink:href="#glyph-0-2" x="40" y="34.25293"/>
<use xlink:href="#glyph-0-3" x="48" y="34.25293"/>
<use xlink:href="#glyph-0-4" x="51" y="34.25293"/>
<use xlink:href="#glyph-0-3" x="58" y="34.25293"/>
<use xlink:href="#glyph-0-5" x="61" y="34.25293"/>
<use xlink:href="#glyph-0-6" x="69" y="34.25293"/>
<use xlink:href="#glyph-0-3" x="74" y="34.25293"/>
<use xlink:href="#glyph-0-7" x="77" y="34.25293"/>
<use xlink:href="#glyph-0-3" x="81" y="34.25293"/>
<use xlink:href="#glyph-0-0" x="84" y="34.25293"/>
<use xlink:href="#glyph-0-1" x="89" y="34.25293"/>
<use xlink:href="#glyph-0-2" x="94" y="34.25293"/>
<use xlink:href="#glyph-0-6" x="102" y="34.25293"/>
<use xlink:href="#glyph-0-3" x="107" y="34.25293"/>
<use xlink:href="#glyph-0-8" x="110" y="34.25293"/>
<use xlink:href="#glyph-0-3" x="117" y="34.25293"/>
<use xlink:href="#glyph-0-9" x="120" y="34.25293"/>
<use xlink:href="#glyph-0-2" x="127" y="34.25293"/>
<use xlink:href="#glyph-0-5" x="135" y="34.25293"/>
<use xlink:href="#glyph-0-3" x="143" y="34.25293"/>
<use xlink:href="#glyph-0-4" x="146" y="34.25293"/>
<use xlink:href="#glyph-0-3" x="153" y="34.25293"/>
<use xlink:href="#glyph-0-5" x="156" y="34.25293"/>
<use xlink:href="#glyph-0-10" x="164" y="34.25293"/>
<use xlink:href="#glyph-0-9" x="171" y="34.25293"/>
</g>
</svg>
